<svg version="1.1" id="Layer_1" xmlns="http://www.w3.org/2000/svg" x="0" y="0" viewBox="-156 27.6 150 24" xml:space="preserve"><style>.st0{fill:#357ce4}</style><path class="st0" d="M-100.1 38.7c.3-1.9 1.1-3.7 2.5-5.1 1.7-1.7 3.9-2.6 6.3-2.6 1.1 0 2.2.2 3.2.6 1.2.5 2.3 1.1 3.2 2 1.4 1.4 2.3 3.2 2.5 5.1h2.8c.3-1.9 1.2-3.7 2.5-5.1 1.7-1.7 3.9-2.6 6.3-2.6 1.1 0 2.2.2 3.2.6 1.2.5 2.3 1.1 3.2 2 1.4 1.4 2.3 3.2 2.5 5.1h2.8c.3-1.9 1.1-3.7 2.5-5.1.8-.8 1.7-1.4 2.6-1.8 1.2-.5 2.4-.8 3.7-.8 2 0 3.8.6 5.3 1.8l-11 11 1.8 1.8 12-12v-1.8c-2.2-2.2-5.1-3.4-8.2-3.4-1.7 0-3.3.3-4.8 1-1.3.6-2.4 1.4-3.4 2.4-.8.8-1.5 1.8-2.1 2.8-.5-1-1.2-2-2.1-2.8-1.2-1.2-2.5-2.1-4.1-2.6-1.3-.5-2.7-.7-4.1-.7-3.1 0-6 1.2-8.2 3.4-.8.8-1.5 1.8-2.1 2.9-.5-1-1.2-2-2.1-2.9-1.2-1.2-2.5-2.1-4.1-2.6-1.3-.5-2.7-.7-4.1-.7-3.1 0-6 1.2-8.2 3.4-1.9 1.9-3 4.3-3.3 6.9h3z"/><path class="st0" d="M-15.4 38.5c-5.2-1.1-7.4-2.4-7.2-4.4.1-.7.4-1.3.9-1.7 1.3-1.1 4-1.5 7.1-1.2 1.9.2 4.1 1 5.6 2l1.1.7 1.5-2.2-1.1-.7c-1.9-1.3-4.5-2.2-6.8-2.5-3.8-.4-7.1.2-9 1.7-.4-.3-1.1-.7-2.2-1.2-1.3-.5-2.7-.7-4.1-.7-3.1 0-6 1.2-8.2 3.4-.3.3-.5.6-.8.9v-4.3h-2.6V40c0 2.4-.9 4.6-2.6 6.3-1.7 1.7-3.9 2.6-6.3 2.6s-4.6-.9-6.3-2.6c-1.4-1.4-2.3-3.1-2.5-5.1h-2.7v10.3h2.6v-4.3c.2.3.5.6.8.9 2.2 2.2 5.1 3.4 8.2 3.4 3.1 0 6-1.2 8.2-3.4.3-.3.5-.6.8-.9v4.3h2.6V40c0-2.4.9-4.6 2.6-6.3C-34.2 32-32 31-29.6 31c1.1 0 2.2.2 3.2.6.9.3 1.4.7 1.6.8-.2.5-.3 1-.3 1.5-.4 5.1 6.4 6.5 9.3 7.1 5.2 1.1 7.4 2.5 7.2 4.7-.1.9-.4 1.6-1 2.1-1.2 1-3.7 1.4-7 1-1.7-.2-4.4-.9-6.1-2.4l-1-.8-1.7 2 1 .8c2.2 1.8 5.3 2.7 7.5 3 1 .1 1.9.2 2.8.2 2.7 0 4.8-.6 6.2-1.7 1.2-1 1.8-2.3 1.9-3.9.4-5.6-6.7-7-9.4-7.5zm-66.9 2.8c-.3 1.9-1.1 3.7-2.5 5.1-1.7 1.7-3.9 2.6-6.3 2.6s-4.6-.9-6.3-2.6c-1.4-1.4-2.3-3.2-2.5-5.1h-2.8c-.3 1.9-1.1 3.7-2.5 5.1-1.7 1.7-3.9 2.6-6.3 2.6s-4.6-.9-6.3-2.6c-1.7-1.7-2.6-3.9-2.6-6.3V40c0-2.4.9-4.6 2.6-6.3.8-.8 1.7-1.4 2.6-1.8 1.2-.5 2.4-.8 3.7-.8h1.3v-2.6h-1.3c-1.7 0-3.3.3-4.8 1-1.3.6-2.4 1.4-3.4 2.4-2.2 2.2-3.4 5.1-3.4 8.2V40v.1l-.1 1.1c0 .3-.1.6-.1.8-.4 1.6-1.2 3.1-2.4 4.3-1.7 1.7-3.9 2.6-6.3 2.6s-4.6-.9-6.3-2.6-2.6-3.9-2.6-6.3.9-4.6 2.6-6.3c.8-.8 1.7-1.4 2.6-1.8 1.2-.5 2.4-.8 3.7-.8 2 0 3.8.6 5.3 1.8l-11 11 1.8 1.8 12-12v-1.8c-2.2-2.2-5.1-3.4-8.2-3.4-1.7 0-3.3.3-4.8 1-.5.2-.9.4-1.3.7-.4-.3-1-.6-1.9-1-1.3-.5-2.7-.7-4.1-.7-3.1 0-6 1.2-8.2 3.4-.3.3-.5.6-.8.9v-4.3h-2.6v23.1h2.6V40c0-2.4.9-4.6 2.6-6.3 1.7-1.7 3.9-2.6 6.3-2.6 1.1 0 2.2.2 3.2.6.3.1.5.2.7.3-2.1 2.2-3.3 5-3.3 8.1 0 3.1 1.2 6 3.4 8.2 2.2 2.2 5.1 3.4 8.2 3.4 3.1 0 6-1.2 8.2-3.4.9-.9 1.6-1.8 2.1-2.9.5 1.1 1.3 2 2.1 2.9 2.2 2.2 5.1 3.4 8.2 3.4 3.1 0 6-1.2 8.2-3.4.8-.8 1.5-1.8 2.1-2.8.5 1 1.2 2 2.1 2.8 2.2 2.2 5.1 3.4 8.2 3.4s6-1.2 8.2-3.4c.3-.3.5-.6.8-.9v4.3h2.6V41.3h-3z"/><circle class="st0" cx="-91.2" cy="40" r="1.3"/><circle class="st0" cx="-87.2" cy="40" r="1.3"/><circle class="st0" cx="-95.1" cy="40" r="1.3"/></svg>